<svg xmlns="http://www.w3.org/2000/svg" width="240" height="60" viewBox="0 0 240 60" fill="none">
  <!-- Purple circular logo element -->
  <path d="M25 50C38.8071 50 50 38.8071 50 25C50 11.1929 38.8071 0 25 0C11.1929 0 0 11.1929 0 25C0 38.8071 11.1929 50 25 50Z" fill="#8758FF"/>
  <!-- Abstract shapes inside the circle representing global/financial connectivity -->
  <path d="M32 18C32 18 28 12 18 15C8 18 8 30 18 33C28 36 32 30 32 30" stroke="white" stroke-width="2"/>
  <path d="M15 25C15 25 20 20 30 25C40 30 35 35 30 36C25 37 20 35 20 35" stroke="white" stroke-width="2"/>
  
  <!-- "ejara" text -->
  <text x="70" y="35" font-family="Arial, sans-serif" font-weight="bold" font-size="24" fill="#1A2B37">Ejara</text>
</svg>